# xmcd
#
# Track frame offsets: 
#        150
#        17739
#        38263
#        59750
#        76398
#        96902
#        113280
#        131000
#        148595
#        164809
#
# Disc length: 2420 seconds
#
# Revision: 5
# Processed by: cddbd v1.5.2PL0 Copyright (c) Steve Scherf et al.
# Submitted via: ExactAudioCopyFreeDBPlugin 1.0
#
DISCID=8009720a
DTITLE=C.W. Stoneking - Jungle Blues
DYEAR=2008
DGENRE=Blues
TTITLE0=Jungle Blues
TTITLE1=Talkin Lion Blues
TTITLE2=Jungle Lullaby
TTITLE3=Brave Son Of America
TTITLE4=Jailhouse Blues
TTITLE5=Housebound Blues
TTITLE6=I Heard The Marchin Of The Drum
TTITLE7=The Love Me Or Die
TTITLE8=Early In The Mornin
TTITLE9=The Greatest Liar
EXTD=YEAR: 2008
EXTT0=
EXTT1=
EXTT2=
EXTT3=
EXTT4=
EXTT5=
EXTT6=
EXTT7=
EXTT8=
EXTT9=
PLAYORDER=
